<?xml version="1.0" standalone="no"?>
<!DOCTYPE svg PUBLIC "-//W3C//DTD SVG 20010904//EN"
 "http://www.w3.org/TR/2001/REC-SVG-20010904/DTD/svg10.dtd">
<svg version="1.0" xmlns="http://www.w3.org/2000/svg"
 width="512.000000pt" height="512.000000pt" viewBox="0 0 512.000000 512.000000"
 preserveAspectRatio="xMidYMid meet">

<g transform="translate(0.000000,512.000000) scale(0.100000,-0.100000)"
fill="#000000" stroke="none">
<path d="M287 5109 c-104 -25 -206 -111 -254 -214 l-28 -60 -3 -287 -3 -288
25 -25 c31 -30 64 -32 100 -4 l26 20 0 261 c0 301 4 322 70 388 65 66 87 70
379 70 l251 0 0 -40 c0 -107 88 -229 195 -269 53 -20 75 -21 435 -21 360 0
382 1 435 21 107 40 195 162 195 269 l0 40 251 0 c169 0 265 -4 293 -12 54
-16 128 -90 144 -144 18 -60 18 -4448 0 -4508 -16 -54 -90 -128 -144 -144 -60
-17 -2288 -17 -2348 0 -54 16 -128 90 -144 144 -9 32 -12 448 -12 1822 0 1724
-1 1781 -19 1803 -26 32 -86 32 -112 0 -19 -23 -19 -73 -17 -1835 l3 -1811 28
-60 c37 -79 114 -156 191 -192 l61 -28 1195 0 1195 0 65 31 c82 39 144 101
183 183 26 55 31 79 35 168 l5 103 186 0 c102 0 191 4 197 8 16 11 34 48 34
72 0 11 -11 32 -25 45 -24 25 -26 25 -210 25 l-185 0 0 450 c0 510 -8 466 85
464 52 0 103 -21 142 -57 33 -30 72 -25 130 15 86 59 178 58 254 -2 54 -43 80
-46 117 -15 64 54 28 122 -95 181 -48 23 -72 28 -138 28 -44 1 -92 -2 -107 -7
l-28 -7 0 100 c0 55 2 100 4 100 2 0 42 7 90 15 95 17 200 59 230 93 18 21 28
22 168 22 l149 0 37 -30 c55 -44 138 -78 222 -91 41 -6 81 -13 88 -15 8 -2 12
-25 12 -68 l0 -65 -32 18 c-59 35 -137 51 -240 51 -104 0 -149 -13 -163 -47
-17 -42 -17 -188 -1 -253 46 -179 139 -257 354 -297 l82 -16 0 -99 c0 -91 -2
-100 -17 -93 -42 17 -141 17 -199 1 -96 -28 -184 -95 -184 -142 0 -63 85 -100
133 -57 71 65 172 76 252 27 90 -56 93 -56 119 -42 13 7 45 26 71 42 80 49
181 38 252 -27 48 -43 133 -6 133 57 0 46 -90 115 -184 142 -58 16 -157 16
-198 -1 -16 -7 -18 2 -18 93 l0 101 38 6 c151 25 225 52 286 106 54 47 101
138 117 224 11 58 7 193 -7 228 -13 34 -58 47 -161 47 -106 0 -183 -16 -239
-49 l-35 -21 3 68 3 67 57 6 c87 10 189 46 245 89 l50 38 118 3 c115 4 117 5
142 33 19 23 23 36 19 60 -11 51 -28 61 -120 64 l-83 4 9 56 c10 60 2 185 -12
213 -18 32 -65 42 -188 37 -118 -4 -128 -7 -245 -66 -4 -2 -7 26 -7 62 0 45 4
68 13 70 6 2 52 11 102 20 204 39 293 123 332 311 20 102 11 218 -21 250 -47
46 -242 41 -355 -11 -29 -13 -57 -24 -62 -24 -5 0 -9 14 -9 32 0 25 13 45 65
99 92 96 130 177 130 285 0 73 -3 87 -39 159 -42 85 -139 191 -195 215 -44 18
-82 0 -159 -78 -183 -182 -185 -406 -5 -589 43 -45 53 -61 53 -89 0 -19 -2
-34 -4 -34 -2 0 -28 11 -57 24 -113 52 -308 57 -355 11 -42 -42 -44 -208 -4
-322 50 -143 172 -228 360 -249 l60 -7 0 -68 0 -68 -32 18 c-59 35 -137 51
-240 51 -103 0 -149 -13 -162 -46 -13 -34 -18 -160 -8 -211 l9 -53 -67 0 -67
0 9 53 c12 60 5 195 -11 225 -16 30 -63 42 -160 42 -101 -1 -157 -12 -223 -45
l-48 -24 0 68 0 68 58 6 c142 15 263 76 320 161 49 74 67 144 67 266 0 158
-12 170 -174 170 -102 0 -180 -17 -238 -51 l-33 -18 0 67 0 67 74 12 c93 15
180 45 230 81 50 34 101 109 121 175 36 118 31 272 -9 312 -47 47 -241 41
-355 -11 -29 -13 -55 -24 -57 -24 -2 0 -4 16 -4 35 0 28 9 43 49 83 88 88 141
200 141 297 0 111 -76 252 -181 334 -62 50 -88 57 -127 37 -52 -27 -149 -133
-182 -199 -81 -167 -54 -312 86 -458 55 -56 64 -71 64 -102 l0 -36 -46 24
c-26 14 -73 30 -105 37 l-58 12 -3 495 -3 496 -31 65 c-40 83 -102 145 -184
184 l-65 31 -1175 2 c-663 0 -1191 -3 -1213 -8z m1670 -181 c-6 -45 -28 -81
-71 -112 -27 -20 -39 -21 -406 -21 -367 0 -379 1 -406 21 -43 31 -65 67 -71
112 l-6 42 483 0 483 0 -6 -42z m1326 -567 c55 -61 71 -99 72 -166 0 -67 -27
-125 -84 -179 l-31 -30 -29 28 c-78 75 -104 191 -62 275 22 43 78 111 91 111
4 0 24 -18 43 -39z m1166 -688 c48 -53 76 -135 66 -186 -10 -46 -52 -121 -87
-154 l-30 -28 -44 48 c-28 31 -49 67 -59 100 -19 63 -19 73 1 130 15 43 86
137 104 137 5 0 27 -21 49 -47z m-835 -36 c-3 -146 -75 -216 -248 -242 l-46
-7 0 53 c0 105 36 178 108 217 43 24 116 41 162 39 24 -2 25 -5 24 -60z m-593
38 c91 -32 138 -107 139 -218 l0 -68 -47 7 c-27 3 -70 14 -98 23 l-50 16 -3
128 c-1 71 1 127 6 127 5 0 29 -7 53 -15z m74 -429 l70 -12 3 -68 3 -67 -51
26 c-28 14 -76 31 -106 37 l-54 11 0 50 0 50 33 -8 c17 -3 64 -12 102 -19z
m-43 -257 c70 -36 108 -107 108 -207 l0 -65 -51 7 c-28 4 -71 15 -97 24 l-47
18 -3 127 -3 128 28 -7 c15 -4 44 -15 65 -25z m564 -31 c-7 -72 -46 -159 -79
-181 -33 -22 -107 -45 -167 -53 l-53 -7 5 75 c10 151 91 226 242 228 l59 0 -7
-62z m580 27 c84 -37 124 -108 124 -218 l0 -59 -46 7 c-170 25 -232 82 -249
232 -6 54 -5 62 12 66 33 8 107 -5 159 -28z m576 -25 c-8 -155 -72 -219 -246
-245 l-46 -7 0 57 c0 141 66 222 199 245 25 4 57 7 71 7 24 -2 25 -5 22 -57z
m-1697 -381 c39 -6 76 -13 83 -15 8 -2 12 -25 12 -69 0 -36 -1 -65 -2 -65 -2
0 -25 11 -51 24 -26 14 -73 30 -102 36 l-55 11 0 51 c0 47 1 50 23 44 12 -3
54 -11 92 -17z m5 -277 c44 -32 80 -117 80 -190 l0 -65 -47 6 c-27 3 -72 13
-100 22 l-53 16 0 129 0 129 47 -14 c26 -8 59 -23 73 -33z m536 -13 c-6 -63
-35 -140 -63 -171 -22 -24 -112 -57 -180 -64 l-56 -7 5 75 c10 150 92 225 247
227 l54 1 -7 -61z m545 41 c98 -27 159 -115 159 -227 0 -56 -2 -63 -20 -63
-42 0 -128 24 -173 48 -58 31 -93 95 -103 190 l-7 62 54 0 c30 0 70 -5 90 -10z
m614 -42 c-19 -154 -66 -208 -203 -237 -93 -19 -92 -20 -92 52 0 49 6 75 28
117 42 83 107 119 215 120 l59 0 -7 -52z m-1735 -378 c25 -5 62 -11 83 -15
l37 -6 0 -100 0 -99 -27 7 c-16 5 -61 8 -101 8 l-72 0 0 114 c0 104 1 113 17
106 10 -3 38 -10 63 -15z m1167 -272 c71 -36 107 -99 111 -195 l4 -73 -29 0
c-44 0 -143 28 -181 52 -44 27 -78 101 -88 187 l-7 64 72 -5 c48 -4 87 -13
118 -30z m568 -30 c-8 -81 -46 -161 -89 -187 -36 -23 -135 -51 -178 -51 -28 0
-28 1 -28 63 0 147 92 234 248 236 l54 1 -7 -62z"/>
<path d="M435 4335 c-30 -30 -32 -64 -4 -99 l20 -26 1029 0 1029 0 20 26 c28
35 26 69 -4 99 l-24 25 -1021 0 -1021 0 -24 -25z"/>
<path d="M473 3983 c-50 -10 -69 -81 -34 -124 l19 -24 727 0 727 0 19 24 c24
30 24 72 0 102 l-19 24 -709 1 c-389 1 -718 0 -730 -3z"/>
<path d="M446 3589 l-26 -20 0 -1003 0 -1003 23 -21 23 -22 1020 0 1021 0 21
23 22 23 0 998 0 997 -25 24 -24 25 -1014 0 c-1011 0 -1014 0 -1041 -21z
m1954 -174 l0 -45 -412 -308 c-227 -169 -434 -323 -460 -341 l-47 -33 -151
136 c-128 114 -157 136 -184 136 -26 0 -79 -37 -300 -210 -147 -115 -270 -210
-272 -210 -2 0 -4 207 -4 460 l0 460 915 0 915 0 0 -45z m0 -760 l0 -525 -915
0 -915 0 1 108 0 107 286 222 285 223 145 -131 c80 -72 155 -135 167 -140 14
-7 30 -7 46 0 14 5 221 156 460 334 239 179 436 326 438 326 1 1 2 -235 2
-524z m0 -830 l0 -155 -915 0 -915 0 0 155 0 155 915 0 915 0 0 -155z"/>
<path d="M431 1284 c-26 -33 -27 -65 -2 -95 19 -24 21 -24 258 -27 231 -3 240
-2 266 18 21 17 27 30 27 60 0 68 -9 70 -286 70 l-243 0 -20 -26z"/>
<path d="M1220 1288 c-25 -27 -26 -69 -1 -99 l19 -24 631 -3 631 -2 25 24 c32
32 33 75 2 104 l-23 22 -632 0 -631 0 -21 -22z"/>
<path d="M1395 927 c-68 -23 -101 -44 -148 -97 -59 -66 -80 -129 -75 -223 6
-119 65 -210 172 -264 128 -65 309 -21 389 94 113 163 56 390 -118 469 -65 30
-164 39 -220 21z m167 -163 c49 -25 73 -72 73 -141 0 -75 -20 -108 -88 -141
-138 -70 -278 78 -207 218 41 80 136 108 222 64z"/>
<path d="M3707 619 c-31 -24 -36 -71 -11 -107 l15 -22 684 0 684 0 20 26 c26
33 27 65 2 95 l-19 24 -675 3 c-671 2 -674 2 -700 -19z"/>
</g>
</svg>
