<?xml version="1.0" standalone="no"?>
<!DOCTYPE svg PUBLIC "-//W3C//DTD SVG 20010904//EN"
 "http://www.w3.org/TR/2001/REC-SVG-20010904/DTD/svg10.dtd">
<svg version="1.0" xmlns="http://www.w3.org/2000/svg"
 width="512.000000pt" height="512.000000pt" viewBox="0 0 512.000000 512.000000"
 preserveAspectRatio="xMidYMid meet">

<g transform="translate(0.000000,512.000000) scale(0.100000,-0.100000)"
fill="#000000" stroke="none">
<path d="M2631 4652 c-429 -154 -499 -182 -536 -214 -110 -97 -114 -255 -9
-393 39 -51 133 -110 208 -130 119 -32 149 -25 645 155 244 88 444 159 446
158 1 -2 21 -58 45 -126 27 -78 50 -128 64 -137 26 -19 86 -20 86 -2 0 7 -15
59 -34 115 -32 95 -33 101 -16 107 31 10 94 -13 123 -43 59 -61 54 -149 -10
-208 l-35 -32 92 -269 c50 -147 95 -272 99 -276 12 -12 69 41 93 87 14 28 21
59 21 96 -1 58 -114 795 -134 867 -25 93 -120 163 -221 163 l-56 0 -26 54
c-38 78 -98 140 -168 175 -110 55 -112 55 -677 -147z"/>
<path d="M2930 3930 c-29 -29 -25 -66 9 -101 34 -33 43 -35 65 -13 25 24 20
81 -9 109 -29 30 -39 31 -65 5z"/>
<path d="M2612 3828 c-17 -17 -15 -59 4 -86 19 -28 60 -29 74 -1 29 54 -37
128 -78 87z"/>
<path d="M2255 3445 c-33 -46 -58 -87 -56 -92 5 -11 103 -83 112 -83 4 0 24
24 45 53 20 28 48 66 61 84 l24 31 -53 39 c-29 22 -57 42 -63 45 -5 3 -37 -31
-70 -77z"/>
<path d="M1922 2953 c-18 -9 -45 -32 -60 -51 -24 -31 -27 -45 -27 -108 0 -58
4 -78 21 -101 51 -68 130 -95 205 -69 l44 16 143 -143 c79 -78 153 -160 165
-182 14 -27 21 -59 21 -100 l1 -60 52 -27 52 -26 7 34 c3 19 4 64 2 102 -7
115 -36 162 -214 342 -147 149 -156 160 -149 188 14 64 -32 155 -96 187 -37
20 -126 19 -167 -2z"/>
<path d="M1212 2598 c-7 -7 -12 -26 -12 -44 0 -30 12 -41 165 -155 91 -68 165
-127 165 -131 0 -3 -9 -9 -19 -13 -32 -10 -89 -81 -101 -127 -15 -54 -6 -119
22 -169 22 -39 98 -99 125 -99 9 0 13 -18 13 -69 0 -57 -3 -69 -17 -73 -10 -3
-168 -29 -350 -59 l-333 -54 0 -42 0 -43 -340 0 -341 0 -24 -25 c-25 -24 -25
-27 -25 -195 0 -168 0 -171 25 -195 18 -18 35 -25 65 -25 l40 0 0 -395 0 -395
1540 0 1540 0 0 395 0 395 39 0 c24 0 48 8 65 21 l26 20 0 179 0 179 -26 20
c-26 21 -34 21 -721 21 -603 0 -698 2 -731 15 -47 20 -79 50 -103 96 -12 24
-28 39 -46 43 -15 4 -58 16 -95 28 l-68 20 0 67 0 67 45 32 c48 34 82 80 92
125 3 15 7 27 9 27 2 0 43 -29 89 -65 57 -43 95 -65 113 -65 15 0 110 11 212
25 102 14 189 25 193 25 17 0 1 19 -38 48 l-40 28 -48 -30 c-42 -26 -58 -30
-115 -30 -41 0 -79 6 -97 16 -16 9 -209 151 -429 317 -402 304 -431 322 -464
289z"/>
</g>
</svg>
