<?xml version="1.0" standalone="no"?>
<!DOCTYPE svg PUBLIC "-//W3C//DTD SVG 20010904//EN"
 "http://www.w3.org/TR/2001/REC-SVG-20010904/DTD/svg10.dtd">
<svg version="1.0" xmlns="http://www.w3.org/2000/svg"
 width="512.000000pt" height="512.000000pt" viewBox="0 0 512.000000 512.000000"
 preserveAspectRatio="xMidYMid meet">

<g transform="translate(0.000000,512.000000) scale(0.100000,-0.100000)"
fill="#000000" stroke="none">
<path d="M2450 5004 c-19 -2 -78 -9 -130 -15 -125 -14 -302 -52 -420 -89 l-95
-30 -882 0 c-870 0 -883 0 -903 -20 -20 -20 -20 -33 -20 -1010 0 -1146 -12
-1030 109 -1030 l70 0 -6 -162 c-7 -201 9 -393 47 -576 48 -227 48 -226 49
134 1 307 2 332 19 347 17 16 94 17 905 17 l886 0 15 -22 c14 -20 16 -99 16
-660 0 -625 0 -638 -20 -658 -19 -19 -33 -20 -235 -20 l-215 0 0 -205 c0 -158
-3 -205 -13 -205 -7 0 -104 92 -217 205 l-205 205 -312 0 c-172 0 -313 -3
-313 -6 0 -23 197 -262 305 -370 396 -396 863 -625 1440 -706 117 -16 475 -16
590 0 208 30 424 83 566 141 l74 30 -612 0 c-599 1 -613 1 -633 21 -20 20 -20
33 -20 629 0 541 2 611 16 625 14 14 102 16 823 16 614 0 810 -3 819 -12 9 -9
12 -142 12 -535 0 -291 4 -523 9 -523 5 0 48 30 97 66 327 243 575 541 750
899 57 117 144 335 144 361 0 2 -548 5 -1217 7 l-1218 2 1277 3 c1145 2 1278
4 1292 18 18 17 29 55 24 78 -1 9 -151 192 -332 406 -289 343 -332 390 -356
390 -25 0 -54 -30 -217 -222 -177 -209 -191 -223 -222 -223 -32 0 -51 20 -376
405 -294 349 -345 405 -371 408 -28 3 -45 -16 -259 -270 -127 -150 -334 -396
-462 -546 l-232 -275 -4 -61 c-2 -33 -4 143 -5 392 l-2 452 175 0 c162 0 177
2 195 20 19 19 20 33 20 495 l0 475 1030 2 1031 3 -80 118 c-396 585 -985 954
-1696 1063 -96 14 -433 27 -505 18z m-1372 -717 c97 -57 293 -170 436 -252
142 -82 265 -160 273 -172 14 -20 14 -26 0 -46 -8 -12 -131 -90 -273 -172
-143 -82 -339 -195 -436 -252 -97 -57 -188 -103 -202 -103 -56 0 -56 -2 -56
550 0 552 0 550 56 550 14 0 105 -46 202 -103z m1233 -2414 c13 -16 12 -17 -3
-4 -10 7 -18 15 -18 17 0 8 8 3 21 -13z"/>
</g>
</svg>
