<?xml version="1.0" standalone="no"?>
<!DOCTYPE svg PUBLIC "-//W3C//DTD SVG 20010904//EN"
 "http://www.w3.org/TR/2001/REC-SVG-20010904/DTD/svg10.dtd">
<svg version="1.0" xmlns="http://www.w3.org/2000/svg"
 width="512.000000pt" height="512.000000pt" viewBox="0 0 512.000000 512.000000"
 preserveAspectRatio="xMidYMid meet">

<g transform="translate(0.000000,512.000000) scale(0.100000,-0.100000)"
fill="#000000" stroke="none">
<path d="M2330 5029 c-47 -5 -146 -21 -220 -35 -583 -115 -1092 -446 -1447
-942 -311 -434 -465 -1011 -413 -1543 19 -193 72 -428 130 -580 17 -46 20 -77
20 -208 0 -188 8 -220 75 -287 59 -59 117 -80 195 -71 l50 6 0 -381 c0 -270 4
-393 12 -422 16 -55 99 -138 154 -154 94 -28 169 -8 239 63 69 68 75 94 75
324 0 190 0 192 25 216 32 33 78 33 110 0 l25 -24 0 -272 c0 -184 4 -285 12
-313 16 -55 99 -138 154 -154 94 -28 169 -8 239 63 69 68 75 94 75 324 0 190
0 192 25 216 15 16 36 25 55 25 19 0 40 -9 55 -25 l25 -24 0 -272 c0 -184 4
-285 12 -313 16 -55 99 -138 154 -154 94 -28 169 -8 239 63 69 68 75 94 75
324 0 190 0 192 25 216 32 33 78 33 110 0 25 -24 25 -26 25 -216 0 -230 6
-256 75 -324 70 -71 145 -91 239 -63 55 16 138 99 154 154 8 28 12 129 12 313
l0 272 25 24 c32 33 78 33 110 0 25 -24 25 -26 25 -216 0 -230 6 -256 75 -324
70 -71 145 -91 239 -63 55 16 138 99 154 154 8 28 12 129 12 313 l0 272 25 24
c32 33 78 33 110 0 25 -24 25 -26 25 -216 0 -230 6 -256 75 -324 70 -71 145
-91 239 -63 55 16 138 99 154 154 8 29 12 152 12 422 l0 381 50 -6 c78 -9 136
12 195 71 67 67 75 99 75 287 0 131 3 162 20 208 111 292 161 680 129 1007
-72 741 -491 1400 -1135 1784 -408 242 -926 357 -1404 309z m555 -174 c97 -15
247 -49 293 -66 l22 -9 0 -564 c0 -540 -1 -565 -19 -587 -18 -23 -26 -24 -173
-29 -138 -5 -157 -7 -191 -29 -50 -31 -86 -85 -93 -143 -8 -56 -15 -63 -74
-72 -96 -15 -170 -103 -170 -203 0 -34 -4 -43 -17 -43 -10 0 -44 -11 -76 -24
l-58 -24 -67 67 c-73 75 -139 113 -235 137 -84 22 -194 14 -276 -19 l-63 -25
-67 69 -68 69 320 0 c222 0 332 4 361 12 55 16 138 99 154 154 25 86 9 162
-49 228 -45 51 -89 74 -167 86 -88 15 -92 23 -92 202 l0 149 -51 52 c-28 29
-63 77 -78 107 -25 53 -26 60 -26 244 l0 189 40 14 c58 20 266 61 370 72 121
13 427 6 550 -14z m-1125 -283 c0 -206 27 -300 118 -402 l40 -46 4 -139 c4
-151 11 -175 64 -229 40 -40 97 -66 157 -73 90 -11 128 -83 72 -138 l-24 -25
-329 0 c-358 0 -388 -4 -464 -57 -36 -24 -48 -27 -107 -25 -223 9 -435 -160
-482 -385 -24 -118 5 -258 76 -363 l34 -50 -48 0 c-154 0 -327 -102 -404 -240
l-31 -54 -8 34 c-19 91 -30 285 -24 420 9 212 32 349 93 552 l26 87 191 3
c180 3 193 4 229 27 50 31 86 85 93 143 4 26 12 52 18 57 6 5 67 11 136 13
111 3 131 7 175 30 163 85 204 295 85 431 -67 76 -111 91 -280 97 l-145 5 97
84 c124 107 246 195 378 270 94 53 233 120 253 121 4 0 7 -67 7 -148z m1733
94 c212 -102 407 -240 574 -403 l98 -97 -75 -6 c-91 -7 -139 -29 -189 -86 -46
-53 -61 -100 -61 -193 0 -63 -3 -75 -25 -96 -15 -16 -35 -25 -56 -25 -62 0
-113 -23 -164 -75 -64 -63 -75 -100 -75 -251 l-1 -119 -42 -47 -43 -47 -63 25
c-84 34 -194 42 -278 20 -96 -24 -162 -62 -235 -137 l-67 -67 -58 24 c-32 13
-66 24 -75 24 -14 0 -18 8 -18 34 0 41 12 51 70 60 88 14 153 78 166 166 4 25
11 51 17 58 7 8 46 12 135 12 69 0 143 5 166 12 55 16 138 99 154 154 9 30 12
186 12 578 0 368 3 536 11 536 5 0 60 -24 122 -54z m-2171 -624 c28 -28 33
-39 33 -82 0 -43 -5 -54 -33 -82 l-32 -33 -138 -5 c-121 -5 -142 -8 -175 -29
-50 -31 -86 -85 -93 -143 -4 -26 -12 -52 -19 -58 -8 -7 -63 -10 -145 -8 l-133
3 51 97 c56 108 119 209 195 311 l50 68 203 -3 204 -3 32 -33z m3049 -149
c151 -233 260 -505 313 -784 l14 -69 -193 0 -193 0 -6 33 c-11 60 -63 152
-119 213 -116 126 -286 179 -449 140 l-58 -13 0 69 c0 60 3 72 25 93 15 16 35
25 56 25 62 0 113 23 164 75 59 59 75 102 75 204 0 63 3 75 25 96 23 24 30 25
150 25 l126 0 70 -107z m-3004 -628 c63 -19 129 -63 164 -110 l27 -36 -33 -49
c-61 -90 -79 -152 -80 -274 l-2 -109 -39 -21 c-61 -32 -192 -29 -260 6 -75 40
-107 70 -145 140 -31 58 -34 70 -33 148 0 69 5 94 24 135 70 143 227 214 377
170z m2624 -26 c67 -36 98 -68 137 -143 22 -43 26 -64 26 -136 1 -78 -2 -90
-33 -148 -38 -70 -70 -100 -145 -140 -68 -35 -199 -38 -261 -5 l-39 21 -1 108
c-2 122 -20 185 -80 273 l-33 50 25 35 c86 120 266 158 404 85z m-1984 -134
c63 -19 129 -63 164 -110 l27 -36 -33 -49 c-61 -91 -79 -152 -80 -274 l-1
-108 -39 -21 c-62 -33 -193 -30 -261 5 -75 40 -107 70 -145 140 -31 58 -34 70
-33 148 0 69 5 94 24 135 70 143 227 214 377 170z m1344 -26 c67 -36 98 -68
137 -143 22 -43 26 -64 26 -136 1 -78 -2 -90 -33 -148 -38 -70 -70 -100 -145
-140 -68 -35 -199 -38 -260 -6 l-39 21 -2 109 c-1 122 -19 184 -80 274 l-33
49 24 33 c39 53 111 101 179 119 62 17 161 2 226 -32z m-640 -160 c67 -36 98
-68 137 -143 22 -43 26 -64 26 -136 1 -78 -2 -90 -33 -148 -38 -70 -70 -100
-145 -140 -43 -22 -64 -26 -136 -26 -72 0 -93 4 -136 26 -75 40 -107 70 -145
140 -31 58 -34 70 -33 148 0 100 24 160 89 225 100 100 249 121 376 54z m2003
-61 c15 -57 1 -366 -22 -477 l-8 -35 -31 54 c-78 138 -250 240 -405 240 l-48
0 34 50 c34 49 76 146 76 175 0 13 31 15 199 15 198 0 199 0 205 -22z m-3176
-348 l23 -30 -49 0 c-206 0 -402 -157 -457 -365 -20 -77 -22 -683 -3 -749 16
-52 102 -141 146 -151 41 -9 41 -21 0 -30 -44 -10 -130 -99 -146 -151 -8 -26
-12 -112 -12 -233 0 -190 0 -192 -25 -216 -32 -33 -78 -33 -110 0 l-25 24 0
776 0 775 -80 0 -80 0 0 -295 0 -296 -25 -24 c-32 -33 -78 -33 -111 0 l-25 25
3 338 c3 336 3 337 28 387 31 64 91 124 155 155 49 24 58 25 345 30 290 6 296
6 355 32 33 14 63 26 66 27 3 0 15 -12 27 -29z m2147 -3 c45 -19 77 -22 345
-27 l295 -5 51 -27 c76 -40 107 -70 145 -140 l34 -63 3 -337 3 -338 -25 -25
c-33 -33 -79 -33 -111 0 l-25 24 0 296 0 295 -80 0 -80 0 0 -775 0 -776 -25
-24 c-32 -33 -78 -33 -110 0 -25 24 -25 26 -25 216 0 121 -4 207 -12 233 -16
52 -102 141 -146 151 -18 3 -32 10 -32 15 0 5 14 12 32 15 44 10 130 99 146
151 19 65 17 672 -3 747 -55 210 -250 367 -458 367 l-48 0 21 31 c16 21 27 28
39 23 9 -3 39 -16 66 -27z m-1507 -157 l23 -30 -49 0 c-206 0 -402 -157 -457
-365 -20 -77 -22 -683 -3 -749 16 -52 102 -141 146 -151 41 -9 41 -21 0 -30
-44 -10 -130 -99 -146 -151 -8 -26 -12 -112 -12 -233 0 -190 0 -192 -25 -216
-32 -33 -78 -33 -110 0 l-25 24 0 776 0 775 -80 0 -80 0 0 -295 0 -296 -25
-24 c-32 -33 -78 -33 -111 0 l-25 25 3 338 c3 336 3 337 28 387 31 64 91 124
155 155 49 24 58 25 345 30 290 6 296 6 355 32 33 14 63 26 66 27 3 0 15 -12
27 -29z m867 -3 c45 -19 77 -22 345 -27 l295 -5 51 -27 c76 -40 107 -70 145
-140 l34 -63 3 -337 3 -338 -25 -25 c-33 -33 -79 -33 -111 0 l-25 24 0 296 0
295 -80 0 -80 0 0 -775 0 -776 -25 -24 c-32 -33 -78 -33 -110 0 -25 24 -25 26
-25 216 0 121 -4 207 -12 233 -16 52 -102 141 -146 151 -18 3 -32 10 -32 15 0
5 14 12 32 15 44 10 130 99 146 151 19 65 17 672 -3 747 -55 210 -250 367
-457 367 l-49 0 23 30 c15 20 27 28 38 24 8 -4 38 -16 65 -27z m63 -226 c70
-38 100 -69 140 -145 l27 -51 3 -337 3 -338 -25 -25 c-33 -33 -79 -33 -111 0
l-25 24 0 296 0 295 -80 0 -80 0 0 -775 0 -776 -25 -24 c-32 -33 -78 -33 -110
0 -25 24 -25 26 -25 216 0 230 -6 256 -75 324 -101 102 -229 102 -330 0 -69
-68 -75 -94 -75 -324 0 -190 0 -192 -25 -216 -32 -33 -78 -33 -110 0 l-25 24
0 776 0 775 -80 0 -80 0 0 -295 0 -296 -25 -24 c-32 -33 -78 -33 -111 0 l-25
25 3 338 c3 336 3 337 28 387 42 86 125 153 215 176 17 4 239 7 495 6 l465 -2
63 -34z m-1748 -921 c0 -5 -7 -10 -15 -10 -8 0 -15 5 -15 10 0 6 7 10 15 10 8
0 15 -4 15 -10z m2430 0 c0 -5 -7 -10 -15 -10 -8 0 -15 5 -15 10 0 6 7 10 15
10 8 0 15 -4 15 -10z m-1790 -160 c0 -5 -7 -10 -15 -10 -8 0 -15 5 -15 10 0 6
7 10 15 10 8 0 15 -4 15 -10z m1150 0 c0 -5 -7 -10 -15 -10 -8 0 -15 5 -15 10
0 6 7 10 15 10 8 0 15 -4 15 -10z"/>
</g>
</svg>
